<?xml version="1.0" standalone="no"?>
<!DOCTYPE svg PUBLIC "-//W3C//DTD SVG 20010904//EN"
 "http://www.w3.org/TR/2001/REC-SVG-20010904/DTD/svg10.dtd">
<svg version="1.0" xmlns="http://www.w3.org/2000/svg"
 width="700.000000pt" height="700.000000pt" viewBox="0 0 700.000000 700.000000"
 preserveAspectRatio="xMidYMid meet">
<metadata>
Created by potrace 1.11, written by Peter Selinger 2001-2013
</metadata>
<g transform="translate(0.000000,700.000000) scale(0.100000,-0.100000)"
fill="#000000" stroke="none">
<path d="M631 6985 c-122 -27 -226 -71 -311 -133 -32 -24 -142 -132 -165 -164
-47 -62 -109 -181 -120 -229 -3 -13 -12 -51 -19 -84 -12 -51 -14 -494 -14
-2870 0 -2660 1 -2814 17 -2890 10 -44 22 -89 26 -100 97 -248 267 -405 525
-487 l75 -23 2850 0 2850 0 77 22 c293 85 500 303 559 587 18 88 19 180 16
2921 -3 3043 0 2830 -48 2965 -64 181 -227 351 -409 429 -30 13 -64 28 -75 33
-83 37 -80 37 -2975 37 -2342 -1 -2805 -3 -2859 -14z m4742 -1428 c39 -26 59
-70 51 -115 -6 -31 -39 -69 -207 -239 -110 -111 -211 -206 -226 -211 -16 -6
-465 -10 -1098 -10 -1096 0 -1105 -1 -1243 -39 -216 -61 -417 -224 -533 -434
-31 -57 -76 -179 -83 -228 -3 -20 -9 -55 -14 -79 -4 -23 -6 -84 -5 -135 13
-410 301 -754 709 -844 61 -14 169 -17 736 -18 366 -1 681 -5 700 -10 107 -24
202 -118 225 -224 29 -133 -37 -266 -163 -328 l-57 -28 -685 -2 c-715 -2 -749
0 -930 43 -128 31 -304 104 -405 168 -30 20 -59 36 -64 36 -5 0 -11 3 -13 8
-1 4 -30 27 -63 51 -74 55 -215 196 -276 276 -89 116 -171 263 -216 388 -67
186 -87 304 -88 507 0 74 3 158 7 185 4 28 10 68 13 90 3 22 10 56 15 75 5 19
10 38 10 42 0 5 16 52 36 105 101 281 264 505 499 685 215 164 491 272 757
294 40 4 74 7 75 8 1 0 566 1 1255 1 1179 0 1256 -1 1281 -18z m-1073 -1194
c380 -56 737 -262 958 -553 31 -41 60 -77 63 -80 29 -26 131 -228 169 -333 38
-106 56 -178 76 -302 11 -64 13 -293 4 -360 -6 -38 -13 -87 -16 -109 -3 -21
-14 -65 -24 -97 -10 -33 -16 -59 -14 -59 6 0 -46 -130 -86 -214 -161 -335
-475 -620 -820 -745 -19 -7 -44 -17 -55 -21 -38 -16 -180 -48 -265 -61 -64 -9
-396 -13 -1340 -14 -690 0 -1270 2 -1288 6 -64 14 -97 66 -85 134 9 44 393
431 443 445 22 6 429 10 1091 10 665 0 1075 4 1110 10 30 6 63 12 74 14 96 19
217 76 320 152 163 120 283 297 336 499 39 148 24 407 -30 530 -61 138 -115
220 -206 310 -135 134 -267 202 -480 251 -16 4 -334 8 -705 9 -656 3 -677 4
-730 24 -70 26 -135 88 -167 158 -22 48 -25 65 -21 133 4 60 10 87 31 123 35
59 97 112 161 136 49 19 79 20 726 19 525 0 696 -4 770 -15z"/>
</g>
</svg>
