<svg width="18" height="16" viewBox="0 0 18 16" version="1.1" xmlns="http://www.w3.org/2000/svg" xmlns:xlink="http://www.w3.org/1999/xlink">
<g id="Canvas" fill="none">
<g id="Group">
<g id="Group_2">
<g id="Vector">
<path d="M 18 0.674814C 18 0.30211 17.6932 -4.15605e-07 17.3145 -4.15605e-07C 16.9354 -4.15605e-07 16.6286 0.30211 16.6286 0.674814L 16.6286 4.58529L 1.37138 4.58529L 1.37138 0.674814C 1.37138 0.30211 1.0649 -4.15605e-07 0.68555 -4.15605e-07C 0.30676 -4.15605e-07 4.20911e-10 0.30211 4.20911e-10 0.674814L 4.20911e-10 4.97883C 4.20911e-10 5.02858 0.0183604 5.0725 0.0290942 5.11919C 0.0186429 5.16588 4.20911e-10 5.20979 4.20911e-10 5.25982C 4.20911e-10 5.63225 0.30676 5.93436 0.68555 5.93436L 17.3145 5.93436C 17.6932 5.93436 18 5.63225 18 5.25982C 18 5.20979 17.9822 5.16588 17.9709 5.11919C 17.9819 5.0725 18 5.02831 18 4.97883L 18 0.674814Z" transform="translate(0 10.0656)" fill="#FAFAFA"/>
</g>
<g id="Vector_2">
<path d="M 4.84242 12.8347C 5.22121 12.8347 5.52825 12.5325 5.52825 12.1601L 5.52825 2.30362L 8.51479 5.24217C 8.64868 5.37391 8.82438 5.44006 8.99979 5.44006C 9.17492 5.44006 9.35061 5.37391 9.48422 5.24217C 9.75257 4.9787 9.75257 4.5518 9.48422 4.28832L 5.32714 0.198025C 5.05964 -0.0660083 4.62577 -0.0660083 4.35771 0.198025L 0.200623 4.28832C -0.0668744 4.5518 -0.0668744 4.9787 0.200623 5.24217C 0.334513 5.37391 0.510208 5.44006 0.685621 5.44006C 0.861034 5.44006 1.03645 5.37391 1.17034 5.24217L 4.15687 2.30362L 4.15687 12.1601C 4.15687 12.5325 4.46335 12.8347 4.84242 12.8347Z" transform="translate(4.20056 0)" fill="#FAFAFA"/>
</g>
</g>
</g>
</g>
</svg>

