<svg width="14" height="8" viewBox="0 0 14 8" version="1.1" xmlns="http://www.w3.org/2000/svg" xmlns:xlink="http://www.w3.org/1999/xlink">
<g id="Canvas" fill="none">
<g id="up-arrow">
<g id="Group">
<g id="Vector">
<path d="M 13.8602 6.5431L 7.32252 0.137505C 7.22912 0.0458833 7.12166 -5.43642e-08 7.0001 -5.43642e-08C 6.87854 -5.43642e-08 6.77088 0.0458833 6.67743 0.137505L 0.14033 6.5431C 0.0466785 6.63487 0 6.74016 0 6.85932C 0 6.97844 0.0468259 7.08388 0.14033 7.17545L 0.841588 7.86254C 0.935092 7.95417 1.0427 7.99995 1.16426 7.99995C 1.28582 7.99995 1.39343 7.95417 1.48693 7.86254L 7.0001 2.46046L 12.5135 7.86288C 12.6069 7.9545 12.7146 8 12.8359 8C 12.9577 8 13.0653 7.95421 13.1588 7.86288L 13.8601 7.1755C 13.9536 7.08392 14 6.97844 14 6.85937C 14 6.74016 13.9536 6.63472 13.8602 6.5431Z" transform="translate(14 8) scale(-1)" fill="white"/>
</g>
</g>
</g>
</g>
</svg>

