<svg width="48" height="43" viewBox="0 0 48 43" version="1.1" xmlns="http://www.w3.org/2000/svg" xmlns:xlink="http://www.w3.org/1999/xlink">
<g id="Canvas" fill="none">
<g id="Group">
<g id="Group_2">
<g id="Vector">
<path d="M 48 1.7995C 48 0.805626 47.182 -1.10828e-06 46.1719 -1.10828e-06C 45.161 -1.10828e-06 44.343 0.805626 44.343 1.7995L 44.343 12.2274L 3.65702 12.2274L 3.65702 1.7995C 3.65702 0.805626 2.83975 -1.10828e-06 1.82813 -1.10828e-06C 0.818028 -1.10828e-06 1.12243e-09 0.805626 1.12243e-09 1.7995L 1.12243e-09 13.2769C 1.12243e-09 13.4096 0.0489611 13.5267 0.0775846 13.6512C 0.0497144 13.7757 1.12243e-09 13.8928 1.12243e-09 14.0262C 1.12243e-09 15.0193 0.818028 15.825 1.82813 15.825L 46.1719 15.825C 47.182 15.825 48 15.0193 48 14.0262C 48 13.8928 47.9525 13.7757 47.9224 13.6512C 47.9518 13.5267 48 13.4088 48 13.2769L 48 1.7995Z" transform="translate(0 26.8416)" fill="#FAFAFA"/>
</g>
<g id="Vector_2">
<path d="M 12.9131 34.2258C 13.9232 34.2258 14.742 33.4201 14.742 32.427L 14.742 6.14299L 22.7061 13.9791C 23.0631 14.3304 23.5317 14.5068 23.9994 14.5068C 24.4664 14.5068 24.935 14.3304 25.2913 13.9791C 26.0068 13.2765 26.0068 12.1381 25.2913 11.4355L 14.2057 0.528067C 13.4924 -0.176022 12.3354 -0.176022 11.6206 0.528067L 0.534995 11.4355C -0.178332 12.1381 -0.178332 13.2765 0.534995 13.9791C 0.892034 14.3304 1.36056 14.5068 1.82832 14.5068C 2.29609 14.5068 2.76386 14.3304 3.1209 13.9791L 11.085 6.14299L 11.085 32.427C 11.085 33.4201 11.9023 34.2258 12.9131 34.2258L 12.9131 34.2258Z" transform="translate(11.2012 34.2258) scale(1 -1)" fill="#FAFAFA"/>
</g>
</g>
</g>
</g>
</svg>

