<svg width="274" height="96" viewBox="0 0 274 96" version="1.1" xmlns="http://www.w3.org/2000/svg" xmlns:xlink="http://www.w3.org/1999/xlink">
<title>Group 4.1</title>
<desc>Created using Figma</desc>
<g id="Canvas" transform="translate(-572 545)">
<g id="Group 4.1">
<g id="Group">
<g id="Vector">
<use xlink:href="#path0_fill" transform="translate(572 -545)" fill="#005BEA"/>
</g>
</g>
<g id="Optima">
<use xlink:href="#path1_fill" transform="translate(676 -527)" fill="#005BEA"/>
</g>
</g>
</g>
<defs>
<path id="path0_fill" d="M 85.3333 0L 10.6667 0C 4.8 0 0 4.72131 0 10.623L 0 85.3771C 0 91.2787 4.8 96 10.6667 96L 85.3333 96C 91.2 96 96 91.2787 96 85.3771L 96 10.623C 96 4.72131 91.2 0 85.3333 0ZM 39.8667 19.541L 72.9333 19.541C 74.2667 19.541 74.9333 21.1148 74 22.1639L 68.9333 27.2787C 68.6667 27.541 68.2667 27.6721 67.8667 27.6721L 39.8667 27.6721C 33.0667 27.6721 27.6 33.1803 27.6 39.8689C 27.6 46.5574 33.0667 52.0656 39.8667 52.0656L 56.1333 52.0656C 58.4 52.0656 60.2667 53.9016 60.2667 56.1312C 60.2667 58.3607 58.4 60.1967 56.1333 60.1967L 39.8667 60.1967C 28.6667 60.1967 19.4667 51.0164 19.4667 39.8689C 19.4667 28.5902 28.5333 19.541 39.8667 19.541ZM 56.1333 76.5902L 23.0667 76.5902C 21.7333 76.5902 21.0667 75.0164 22 73.9672L 27.0667 68.8525C 27.3333 68.5902 27.7333 68.459 28.1333 68.459L 56 68.459C 62.8 68.459 68.2667 62.9508 68.2667 56.2623C 68.2667 49.4426 62.8 44.0656 56 44.0656L 39.8667 44.0656C 37.6 44.0656 35.7333 42.2295 35.7333 40C 35.7333 37.7705 37.6 35.9344 39.8667 35.9344L 56.1333 35.9344C 67.3333 35.9344 76.5333 45.1148 76.5333 56.2623C 76.5333 67.4098 67.3333 76.5902 56.1333 76.5902Z"/>
<path id="path1_fill" d="M 19.3906 47.4688C 29.3281 47.4688 36.6875 40.6719 36.6875 30.0547C 36.6875 19.4141 29.3281 12.6641 19.3906 12.6641C 9.42969 12.6641 2.07031 19.4141 2.07031 30.0547C 2.07031 40.6719 9.42969 47.4688 19.3906 47.4688ZM 19.3906 41.0234C 13.5547 41.0234 9.07812 36.9219 9.07812 30.0547C 9.07812 23.2109 13.5547 19.1328 19.3906 19.1328C 25.2266 19.1328 29.7031 23.2109 29.7031 30.0547C 29.7031 36.9219 25.2266 41.0234 19.3906 41.0234ZM 56.3984 22.4375C 53.1172 22.4375 50.1875 23.75 48.8516 26.1406L 48.6641 22.9062L 42.2656 22.9062L 42.2656 58.7188L 49.0156 58.7188L 49.0156 44.1406C 50.4453 46.3438 53.2578 47.5625 56.3984 47.5625C 62.75 47.5625 68 42.8984 68 35C 68 27.1016 62.75 22.4375 56.3984 22.4375ZM 54.875 41.9609C 51.2656 41.9609 48.4531 39.2188 48.4531 35C 48.4531 30.7812 51.2656 28.0391 54.875 28.0391C 58.4141 28.0391 61.25 30.6172 61.25 35C 61.25 39.3828 58.4141 41.9609 54.875 41.9609ZM 82.0859 47L 86.5391 47L 86.5391 41.8672L 84.3594 41.8672C 82.625 41.8672 81.5703 40.9062 81.5703 38.75L 81.5703 28.0859L 86.5391 28.0859L 86.5391 22.9062L 81.5703 22.9062L 81.5703 15.125L 75.4766 15.125L 75.4766 18.3125C 75.4766 21.9219 74.0703 22.9062 71.5156 22.9062L 69.9922 22.9062L 69.9922 28.0859L 74.7266 28.0859L 74.7266 39.4766C 74.7266 44.2812 77.3984 47 82.0859 47ZM 95.2109 19.2969C 97.2969 19.2969 99.0781 17.5625 99.0781 15.4062C 99.0781 13.2734 97.2969 11.5391 95.2109 11.5391C 93.0781 11.5391 91.2969 13.2734 91.2969 15.4062C 91.2969 17.5625 93.0781 19.2969 95.2109 19.2969ZM 91.7656 47L 98.5625 47L 98.5625 22.9062L 91.7656 22.9062L 91.7656 47ZM 134.094 22.4375C 130.906 22.4375 128.328 23.6328 126.641 26.0469C 125.375 23.7031 122.75 22.4375 119.258 22.4375C 116.305 22.4375 113.867 23.6094 112.273 25.7422L 112.273 22.9062L 105.547 22.9062L 105.547 47L 112.273 47L 112.273 33.7578C 112.273 29.2344 114.453 27.8516 116.797 27.8516C 118.93 27.8516 120.664 29.1172 120.664 32L 120.664 47L 127.484 47L 127.484 33.4062C 127.484 29.2344 129.617 27.8516 132.031 27.8516C 134.047 27.8516 135.828 29.0938 135.828 31.9297L 135.828 47L 142.578 47L 142.578 30.0078C 142.578 25.0625 139.25 22.4375 134.094 22.4375ZM 168.898 40.4609L 168.898 31.1328C 168.898 23.8672 163.602 22.4375 158.773 22.4375C 152.375 22.4375 148.719 24.7109 147.711 29.7031L 153.688 30.7812C 154.109 28.0625 155.961 27.1016 158.398 27.1016C 160.297 27.1016 162.453 27.7578 162.453 30.125C 162.453 31.1094 161.844 31.6953 160.133 32.0938L 156.172 32.9844C 151.133 34.0859 147.406 35.7734 147.406 40.7656C 147.406 45.7812 151.109 47.4688 154.906 47.4688C 157.719 47.4688 160.836 46.5547 162.641 44.375L 163.18 47L 169.484 47L 169.484 46.3438C 169.18 45.2891 168.898 43.4141 168.898 40.4609ZM 157.016 42.8984C 155.281 42.8984 153.852 42.0547 153.852 40.3203C 153.852 38.7031 155.211 38.0469 157.086 37.6016L 162.805 35.9844C 162.805 40.7656 160.227 42.8984 157.016 42.8984Z"/>
</defs>
</svg>
